<?xml version="1.0" encoding="utf-8"?>
<!-- Generator: Adobe Illustrator 16.0.0, SVG Export Plug-In . SVG Version: 6.00 Build 0)  -->
<!DOCTYPE svg PUBLIC "-//W3C//DTD SVG 1.1//EN" "http://www.w3.org/Graphics/SVG/1.1/DTD/svg11.dtd">
<svg version="1.1" xmlns="http://www.w3.org/2000/svg" xmlns:xlink="http://www.w3.org/1999/xlink" x="0px" y="0px" 
	viewBox="0 0 300 300" style="enable-background:new 0 0 300 300;" xml:space="preserve">
<defs>
<style type="text/css">
<![CDATA[
	@import url(css/svg-styles.css);
	
	.letter-color{fill:#aaaaaa;}
	.bars{stroke:#ca983a;stroke-width:1.8618;stroke-miterlimit:2.6131;}
	.harp-color{fill:#ca983a;}
	
	@media screen and (min-width: 1px) {
		#base-harp, #guinness, #stamp, #draught {
			display: none;
		}
	}
	
	@media screen and (min-width: 65px) {
		#big-harp {
			display: none;
		}
			
		#base-harp, #guinness {
			display: block;
		}
	}
	
	@media screen and (min-width: 129px) {
		#stamp {
			display: block;
		}
	}
	
	@media screen and (min-width: 257px) {
		#draught {
			display: block;
		}
	}
	
]]>
</style>
<symbol id="harp">
	<path class="harp-color" d="M132.52,92.98c0,1.05-0.35,1.4-1.4,1.4c-0.7,0-1.4-0.35-1.4-1.4c0-0.7,0.7-1.4,1.4-1.4
		C132.17,91.57,132.52,92.28,132.52,92.98L132.52,92.98z"/>
	<path class="harp-color" d="M166.89,92.28L166.89,92.28c0,0,0.7-0.7,1.05-0.7c1.05-0.7,0.7-1.4,0.7-1.4s-1.05-4.56-1.75-5.61
		c-0.35-1.05-0.7-1.05-1.4-0.35c-2.1,1.75-5.96,3.51-11.93,3.16l0,0c-6.31-0.35-9.82-3.51-14.38-4.21
		c-4.21-0.7-11.23,1.05-10.88,3.51c0,0.7,0.35,2.81,0.35,3.51c0,0-1.75,0.7-1.75,2.8c0,2.81,2.45,3.86,2.45,3.86l13.68,40.34
		c0.35,0.7,1.4,1.05,2.45,0.7c0.35-0.35,1.05-0.7,1.75-1.05c10.52-7.37,17.19-20.34,17.19-34.02c0-5.26-1.4-8.07-1.4-8.07
		c0.35-0.35,1.05-0.7,1.4-1.05c0,0,2.1,4.91,1.05,13.68c-1.4,12.28-7.72,23.15-17.54,29.82c0,0,0,0.7,1.75-0.35
		c10.88-6.66,17.19-17.54,18.24-29.82c0.35-2.1,0.35-3.86,0.35-5.61C167.95,98.24,167.25,93.33,166.89,92.28L166.89,92.28z
		 M135.32,88.42c1.05-1.4,3.86,0.35,3.86,0.35l-2.46,5.26C136.73,94.03,134.62,89.12,135.32,88.42L135.32,88.42z M146.55,112.97
		l-1.4-2.46l7.37-15.43c0.7,0,1.4,0.35,2.1,0.35L146.55,112.97L146.55,112.97z M156.72,95.78c0.35,0,0.7,0,1.4,0
		c0.35,0,0.7,0,1.05,0L149,117.53l-1.4-2.46L156.72,95.78L156.72,95.78z M144.09,108.41l-1.4-2.81l5.96-12.28
		c0.35,0.35,1.4,0.7,2.11,1.05L144.09,108.41L144.09,108.41z M141.64,103.5l-1.05-2.81l4.21-9.12c0.7,0.35,1.4,0.7,2.1,1.05
		L141.64,103.5L141.64,103.5z M139.18,98.59l-1.4-2.46l3.16-6.67c0.7,0.35,1.4,0.7,2.11,1.05L139.18,98.59L139.18,98.59z
		 M147.25,132.26l-14.03-37.53c0,0-0.7,1.05-2.11,1.05c-1.75,0-2.81-1.05-2.81-2.46c0-1.75,1.4-3.16,2.81-3.16
		c0.7,0,2.11,0.35,3.16,1.75c0.35,0.7,14.03,36.83,14.03,36.83s2.81-2.81,4.21-4.56l-2.1-3.86l10.88-24.9
		C161.28,95.43,165.84,117.53,147.25,132.26L147.25,132.26z M156.37,92.28c-5.97,0-10.88-2.46-14.03-4.21
		c-1.4-1.05-2.8-1.75-3.51-1.75c0,0-0.35,0-0.35-0.35l0,0c0,0,0,0,0-0.35c0.35,0,0.7,0,1.05,0c1.05,0,2.45,0.7,4.21,1.75
		c3.16,1.75,7.36,3.51,12.63,3.51c4.91,0.35,9.47-2.81,9.47-2.81h0.35l0,0c0,0,0.35,0.7,0.35,1.05
		C166.54,89.82,160.58,92.62,156.37,92.28L156.37,92.28z"/>
</symbol>
</defs>
<g id="draught">
	<path class="letter-color" d="M99.07,207.68h2.81c2.45,0,3.86,1.05,3.86,3.51c0,2.1-1.4,3.51-3.86,3.51h-2.81V207.68L99.07,207.68z
		 M101.52,205.93h-5.61v0.35c0.35,0,0.7,0,0.7,0.35v8.77c0,0.35-0.35,0.7-0.7,0.7v0.35h5.61c2.1,0,3.51-0.35,4.91-1.4
		c1.05-0.7,1.75-2.1,1.75-3.86c0-1.76-0.7-3.16-1.75-4.21C105.03,205.93,103.63,205.93,101.52,205.93L101.52,205.93z"/>
	<path class="letter-color" d="M118.36,207.68c2.11,0,2.81,0.35,2.81,1.4c0,1.05-0.7,1.4-2.81,1.4h-3.16v-2.81L118.36,207.68L118.36,207.68z
		 M112.04,216.45h3.51v-0.35c-0.35,0-0.35-0.35-0.35-0.7v-3.16h2.81l2.45,3.16l0.35,0.35c0,0.35-0.35,0.35-0.7,0.35v0.35h4.21v-0.35
		c-0.7-0.35-1.05-0.35-1.4-1.05l-2.1-3.16c1.75-0.35,2.81-1.4,2.81-3.16c0-1.75-1.4-2.81-4.56-2.81h-7.02v0.35c0.7,0,0.7,0,0.7,0.35
		v8.77c0,0.35,0,0.7-0.7,0.7V216.45L112.04,216.45z"/>
	<path class="letter-color" d="M132.39,208.38l2.11,3.86h-3.86L132.39,208.38L132.39,208.38z M126.08,216.45h3.51v-0.35
		c-0.35,0-0.35-0.35-0.35-0.35c0-0.35,0-0.35,0-0.35l0.7-1.75h4.91l1.05,1.75c0,0,0,0,0,0.35c0,0,0,0.35-0.35,0.35v0.35h3.86v-0.35
		c-0.7,0-0.7-0.35-1.05-1.05l-4.21-8.07c0-0.35,0-0.35,0-0.35c0-0.35,0-0.35,0.35-0.35v-0.35h-3.86v0.35c0.7,0,0.7,0,0.7,0.35
		c0,0,0,0,0,0.35l-4.21,8.07c-0.35,0.7-0.35,1.05-1.05,1.05V216.45L126.08,216.45z"/>
	<path class="letter-color" d="M148.52,214.7c2.46,0,3.16-0.7,3.16-2.46v-5.61c0-0.35,0-0.35-0.35-0.35v-0.35h3.16v0.35
		c-0.35,0-0.35,0-0.35,0.35v5.61c0,3.16-1.4,4.21-5.61,4.21c-3.86,0-5.61-1.05-5.61-4.21v-5.61c0-0.35,0-0.35-0.35-0.35v-0.35h3.51
		v0.35c-0.7,0-0.7,0-0.7,0.35v5.61C145.37,214,146.07,214.7,148.52,214.7L148.52,214.7z"/>
	<path class="letter-color" d="M171.33,214.7L171.33,214.7c-2.1,1.4-4.56,1.76-6.32,1.76c-3.86,0-6.31-2.46-6.31-5.26
		c0-3.16,2.46-5.61,6.67-5.61c2.46,0,3.86,1.05,4.21,1.05c0.35,0,0.35-0.35,0.7-0.35l0.35,0.35l-1.4,2.46l-0.35-0.35l0,0
		c0-0.35-1.75-1.4-3.86-1.4c-2.45,0-4.21,1.75-4.21,3.86c0,1.75,2.11,3.51,4.56,3.51c1.05,0,2.1-0.35,3.51-0.7v-1.4h-2.81
		c-0.35,0-0.7,0-0.7,0.35h-0.35v-2.46h0.35c0,0.7,0.35,0.7,0.7,0.7h5.26v0.35c-0.35,0-0.7,0-0.7,0.35V214
		C170.62,214.35,170.97,214.35,171.33,214.7L171.33,214.7z"/>
	<path class="letter-color" d="M178.69,216.1v0.35h-3.16v-0.35c0.35,0,0.35-0.35,0.35-0.7v-8.77c0-0.35,0-0.35-0.35-0.35v-0.35h3.16v0.35
		c-0.35,0-0.35,0-0.35,0.35v3.16h6.31v-3.16c0-0.35,0-0.35-0.35-0.35v-0.35h3.16v0.35c-0.35,0-0.35,0-0.35,0.35v8.77
		c0,0.35,0,0.7,0.35,0.7v0.35h-3.16v-0.35c0.35,0,0.35-0.35,0.35-0.7v-3.51h-6.31v3.51C178.34,215.75,178.34,216.1,178.69,216.1
		L178.69,216.1z"/>
	<path class="letter-color" d="M191.67,208.03h-0.35v-2.81h0.35c0,0.7,0.35,0.7,0.7,0.7h9.12c0.35,0,0.7,0,0.7-0.7h0.35v3.16h-0.35
		c0-0.7-0.35-0.7-0.7-0.7h-3.51v7.72c0,0.35,0.35,0.7,0.7,0.7v0.35h-3.51v-0.35c0.35,0,0.35-0.35,0.35-0.7v-7.72h-3.16
		C192.02,207.68,191.67,207.68,191.67,208.03L191.67,208.03z"/>
	<polygon class="bars harp-color" points="85.03,213.64 36.98,211.19 85.03,211.19 	"/>
	<polygon class="bars harp-color" points="212.02,211.19 259.02,211.19 212.02,213.29 	"/>
	<polygon class="bars harp-color" points="126.43,130.86 36.98,130.86 125.72,128.41 	"/>
	<polygon class="bars harp-color" points="175.54,128.76 259.02,130.86 174.48,130.86 	"/>
</g>
<g id="stamp">
	<path class="letter-color" d="M264.28,198.91c0-2.1,1.75-3.51,3.86-3.51c2.1,0,3.86,1.4,3.86,3.51c0,2.11-1.75,3.51-3.86,3.51
		C266.04,202.42,264.28,201.02,264.28,198.91L264.28,198.91z M264.99,198.91c0,1.76,1.4,2.81,3.16,2.81c1.75,0,3.16-1.05,3.16-2.81
		c0-1.75-1.4-2.81-3.16-2.81C266.39,196.1,264.99,197.16,264.99,198.91L264.99,198.91z M269.89,200.67h-0.7l-1.05-1.76h-0.7v1.76
		h-0.7v-3.51h1.75c0.35,0,0.7,0,1.05,0c0.35,0.35,0.35,0.35,0.35,0.7c0,0.7-0.7,1.05-1.05,1.05L269.89,200.67L269.89,200.67z
		 M268.14,198.56c0.35,0,1.05,0,1.05-0.7c0-0.35-0.35-0.35-0.7-0.35h-1.05v1.05L268.14,198.56L268.14,198.56z"/>
	<path class="harp-color" d="M116.61,112.27c-0.35,0-0.35,0-0.7,0h-0.35c0-0.35,0.7-0.35,1.4-0.7c1.05-0.35,1.05-1.05,1.4-1.05v0.35
		c0,0.35,0,0.7,0,1.75v5.61c0,0.35,0,0.35,0,0.35c0,0.7,0,1.05,0.7,1.05c0.35,0.35,0.7,0.35,0.7,0.7c0,0,0,0-0.35,0
		c0,0-0.7,0-1.76,0c-0.7,0-1.4,0-1.4,0c-0.35,0-0.35,0-0.35,0c0-0.35,0.35-0.35,0.7-0.35c0.35-0.35,0.7-0.7,0.7-1.75v-5.26
		C117.31,112.27,116.96,112.27,116.61,112.27L116.61,112.27z"/>
	<path class="harp-color" d="M123.97,110.87c0.7,0,1.4,0,1.4,0c0.35,0,0.35,0,0.35,0.35c0,0.7-0.35,1.4-0.7,2.81
		c-0.7,2.11-1.75,3.51-1.75,4.91c0,1.05,0.35,1.4,0.35,1.75c0,0-0.35,0.35-1.05,0.35c-0.35,0-0.7-0.35-0.7-1.05
		c0-1.75,0.7-2.81,1.4-4.21c1.4-1.75,1.75-3.16,1.75-3.51c0,0,0,0-0.35,0l0,0h-2.45c-0.7,0-1.05,0-1.05,0.35
		c-0.35,0.35-0.35,0.7-0.35,0.7c-0.35,0-0.35,0-0.35-0.35c0-0.35,0-0.7,0.35-1.75c0-0.35,0.35-0.35,0.35-0.35c0.35,0,0.7,0,1.75,0
		L123.97,110.87L123.97,110.87z"/>
	<path class="harp-color" d="M173.43,111.57c0.35-0.7,0.35-0.7,0.7-0.7h2.11c0.35,0,0.7,0,1.05,0c0-0.35,0-0.35,0.35-0.35l0,0v0.35
		l-0.35,1.05c0,0.35-0.35,0.35-0.7,0.35h-2.1c-0.35,0-0.7,0-0.7,0.35v1.4l0,0c0,0.35,0,0.35,0,0.35s0.35-0.35,1.05-0.35
		c1.75,0,3.16,1.4,3.16,2.81c0,1.05-0.7,1.75-1.4,2.81c-0.7,0.7-1.4,1.05-2.46,1.05c-1.05,0-1.75-0.35-1.75-0.7c0,0,0,0,0.35,0
		c0,0,0.35,0,1.05,0c1.4,0,2.81-1.05,2.81-2.81c0-1.05-1.05-1.75-2.46-1.75c-0.35,0-0.7,0-1.05,0c0,0,0,0,0-0.35c0,0,0,0,0-0.35
		L173.43,111.57L173.43,111.57z"/>
	<path class="harp-color" d="M181.5,111.22c1.05,0,2.11,1.05,2.11,2.81c0,1.4-0.7,2.11-1.75,2.11c-1.05,0-1.76-1.05-1.76-2.81
		C180.1,111.92,180.45,111.22,181.5,111.22L181.5,111.22z M183.25,116.13c-0.35,1.4-1.05,2.45-2.1,3.51
		c-1.05,0.35-1.75,0.35-1.75,0.7v0.35c0.7,0,2.1-0.7,3.16-1.4c1.4-1.05,2.46-2.81,2.46-4.91c0-2.1-1.4-3.51-3.16-3.51
		c-1.75,0-3.16,1.4-3.16,3.16c0,1.75,1.05,2.81,2.46,2.81C181.85,116.83,182.9,116.48,183.25,116.13L183.25,116.13z"/>
	<path class="harp-color" d="M165.71,128.76c-1.75,0-3.51,1.75-3.51,3.51c0,2.1,1.75,3.51,3.51,3.51c2.11,0,3.51-1.4,3.51-3.51
		C169.22,130.51,167.82,128.76,165.71,128.76z M165.71,135.07c-1.4,0-2.8-1.05-2.8-2.81c0-1.4,1.4-2.81,2.8-2.81
		c1.75,0,2.81,1.4,2.81,2.81C168.52,134.02,167.47,135.07,165.71,135.07z"/>
	<path class="harp-color" d="M167.47,131.56c0-0.35,0-0.7-0.35-0.7c-0.35-0.35-0.7-0.35-1.05-0.35h-1.4v3.51h0.35v-1.75h0.7l1.05,1.75h0.7
		l-1.05-1.75C167.12,132.26,167.47,132.26,167.47,131.56z M165.71,131.91h-0.7v-1.05h1.05c0.35,0,0.7,0,0.7,0.7
		C166.77,131.91,166.42,131.91,165.71,131.91z"/>
</g>
<g id="guinness">
	<path class="letter-color" d="M44.7,166.99v2.81c5.96,0.35,7.01,1.05,7.01,9.12c0,8.07-2.1,11.58-7.37,11.58c-6.66,0-10.52-7.37-10.87-21.05
		c0-0.7,0-2.11,0-5.96c0-9.47,2.46-20.7,11.23-20.7c2.81,0,4.91,1.05,6.66,3.51c2.81,3.16,3.51,5.61,4.21,10.52h3.51v-16.49h-2.81
		v0.35c-0.7,1.4-1.05,2.1-1.4,2.1s-0.7-0.35-1.05-0.7c-0.35-0.35-1.05-0.35-1.4-0.7c-2.46-1.4-5.26-2.46-8.07-2.46
		c-9.82,0-20.35,10.17-20.35,27.71c0,19.64,11.23,27.71,19.99,27.71c2.81,0,5.26-0.7,7.02-1.4c1.76-1.05,3.51-2.46,3.86-2.46
		c1.05,0,2.1,2.81,2.1,2.81h3.16v-18.59c0-3.51,0.7-4.56,4.21-4.56v-3.16L44.7,166.99L44.7,166.99z"/>
	<path class="letter-color" d="M112.75,191.89c-2.46,0-3.16-1.75-3.16-3.86v-32.97c0-2.1,1.05-3.51,2.81-3.51v-1.75H98.01v1.75
		c2.45,0,3.16,1.4,3.16,3.51v32.97c0,2.46-0.7,3.86-2.81,3.86v1.4h14.38V191.89L112.75,191.89z"/>
	<path class="letter-color" d="M126.08,191.89c-3.16,0-3.86-2.81-3.86-5.96v-20.35l-3.86-7.02v27.36c0,3.16-0.35,5.96-3.86,5.96v1.4h11.58
		L126.08,191.89L126.08,191.89z"/>
	<path class="letter-color" d="M149.93,151.56v-1.75h-11.58v1.75c3.16,0,3.86,2.81,3.86,5.61v21.4l-16.49-28.76H114.5v1.75
		c1.05,0,2.46,0.35,3.16,1.75c0.7,1.4,23.15,39.99,23.15,39.99h5.26v-36.13C146.07,154.01,146.42,151.56,149.93,151.56
		L149.93,151.56z"/>
	<path class="letter-color" d="M162.91,191.89c-3.16,0-3.86-2.81-3.86-5.96v-20.35l-3.86-7.02v27.36c0,3.16-0.35,5.96-3.86,5.96v1.4h11.58
		V191.89L162.91,191.89z"/>
	<path class="letter-color" d="M186.41,151.56v-1.75h-11.58v1.75c3.51,0,3.86,2.81,3.86,5.61v21.4l-16.13-28.76h-11.23v1.75
		c1.05,0,2.1,0.35,2.8,1.75c1.06,1.4,23.5,39.99,23.5,39.99h5.26v-36.13C182.9,154.01,183.25,151.56,186.41,151.56L186.41,151.56z"
		/>
	<path class="letter-color" d="M96.26,151.56v-1.75H83.63v1.75h1.05c3.16,0,3.86,2.11,3.86,5.61v24.55c0,3.86-0.7,5.97-2.11,7.37
		c-1.05,1.4-2.81,1.76-4.91,1.76c-4.91,0-5.96-2.81-5.96-8.77v-27.01c0-2.46,1.05-3.51,3.86-3.51v-1.75H62.94v1.75h1.05
		c3.16,0,2.81,2.11,2.81,3.51v27.01c0,8.77,3.51,12.28,12.28,12.28c4.91,0,8.07-1.05,10.17-3.16c2.1-2.11,3.16-5.26,3.16-9.82v-24.2
		C92.4,153.66,92.75,151.91,96.26,151.56L96.26,151.56z"/>
	<path class="letter-color" d="M234.82,168.75c-1.05-0.7-5.26-4.21-5.26-4.21c-3.86-2.81-4.91-5.26-4.91-8.07c0-2.81,2.46-4.91,4.91-4.91
		c4.21,0,7.02,1.4,9.12,9.82h1.4v-10.52c0,0-1.4,1.4-1.4,1.75c-3.16-2.46-5.96-3.51-8.77-3.51c-7.01,0-11.22,5.61-11.22,10.87
		c0,4.56,1.05,8.42,7.37,13.33c6.31,4.91,10.17,8.07,10.17,12.98c0,2.81-2.45,4.91-5.26,4.91c-4.21,0-9.12-1.05-11.57-10.52h-1.4
		v12.28l2.1-1.4c3.16,1.4,7.02,2.81,10.87,2.81c5.96,0,11.57-5.61,11.57-12.28C242.53,178.92,241.83,174.01,234.82,168.75
		L234.82,168.75z"/>
	<path class="letter-color" d="M261.48,168.75c-0.7-0.7-4.91-4.21-5.26-4.21c-3.86-2.81-4.91-5.26-4.91-8.07c0-2.81,2.81-4.91,5.26-4.91
		c3.86,0,7.02,1.4,8.77,9.82h1.75v-10.52c0,0-1.4,1.4-1.75,1.75c-3.16-2.46-5.61-3.51-8.42-3.51c-7.01,0-11.57,5.61-11.57,10.87
		c0,4.56,1.05,8.42,7.72,13.33c6.31,4.91,10.17,8.07,10.17,12.98c0,2.81-2.46,4.91-5.26,4.91c-4.21,0-9.12-1.05-11.58-10.52h-1.75
		v12.28l2.46-1.4c3.16,1.4,6.66,2.81,10.87,2.81c5.96,0,11.57-5.61,11.57-12.28C269.54,178.92,268.84,174.01,261.48,168.75
		L261.48,168.75z"/>
	<path class="letter-color" d="M212.37,181.02c0,9.82-1.75,9.82-8.42,9.82h-1.75c-0.7,0-1.4,0-1.75-0.35c-0.35-0.35-0.35-1.05-0.35-2.11
		V171.9h2.1c2.81,0,4.21,1.05,4.21,6.31h2.46v-14.73h-2.46c0,2.81-0.35,3.86-0.7,4.56c-0.7,0.7-1.4,0.7-3.16,0.7c0,0-1.76,0-2.46,0
		l-0.35-13.68c0-1.4,0.35-2.1,0.7-2.45c0.35-0.35,0.7-0.35,2.1-0.35h2.8c3.86,0,5.96,0,7.02,6.66h2.1v-9.12h-26.66v1.75
		c1.05,0,2.46,0,3.16,0.7c0.35,0.35,0.35,1.05,0.35,2.1v33.67c0,2.1-0.35,3.86-3.16,3.86v1.4h26.3v-12.28H212.37L212.37,181.02z"/>
</g>

<g id="base-harp">
	<use xlink:href="#harp" />
</g>

<g id="big-harp">
	<use xlink:href="#harp" transform="matrix(3 0 0 3 -291.2 -160)" /> 
</g>
</svg>
